<?xml version="1.0" encoding="UTF-8"?>
<svg width="32px" height="32px" viewBox="0 0 32 32" version="1.1" xmlns="http://www.w3.org/2000/svg" xmlns:xlink="http://www.w3.org/1999/xlink">
    <!-- Generator: Sketch 61.2 (89653) - https://sketch.com -->
    <title>Favicon</title>
    <desc>Created with Sketch.</desc>
    <g id="Favicon" stroke="none" stroke-width="1" fill="none" fill-rule="evenodd">
        <g id="Group" transform="translate(3.000000, 0.000000)" fill="#6E2ED8" fill-rule="nonzero">
            <path d="M13,0 C12.908404,0.000744190546 12.817591,0.0273862121 12.7517547,0.0930238183 C9.48842714,3.29945065 3.50674647,3.72095273 0.362055833,3.72095273 C0.172997915,3.72097134 0.000990579744,3.89822636 0.000971801966,4.093048 C0.000971801966,11.0115754 -0.0896439767,16.7984197 1.47915993,21.4884946 C3.04796383,26.1783834 6.32681736,29.7196513 12.8871613,31.9769301 C12.9232507,31.9906976 12.961505,32 13,32 C13.0384953,32 13.0767511,31.9906976 13.1128387,31.9769301 C19.6731826,29.7196513 22.9520362,26.1783834 24.5208404,21.4884946 C26.0896443,16.7986058 25.9990282,11.0115754 25.9990282,4.093048 C25.9990098,3.89822636 25.8270021,3.72097134 25.6379442,3.72095273 C22.4932535,3.72095273 16.5115732,3.29945065 13.2482453,0.0930238183 C13.182409,0.027397375 13.0915964,0.000740469594 13,0 L13,0 Z M13.0000002,0.837214365 C16.4675242,4.01708103 22.0767454,4.4310333 25.2768601,4.4535153 C25.2789185,11.2103152 25.321942,16.8370804 23.8438076,21.255935 C22.3478778,25.7279621 19.3337418,29.0133401 13.0000002,31.221093 C6.6662582,29.0133401 3.65212223,25.7279621 2.15619271,21.255935 C0.678058392,16.8370804 0.721081892,11.2103152 0.723139864,4.4535153 C3.92325492,4.43104075 9.5324762,4.01708103 13.0000002,0.837214365 Z M13.0000001,1.50588235 C16.3096305,4.53968605 21.6634361,4.93462397 24.7178337,4.95607328 C24.7197983,11.4025085 24.7608628,16.7708157 23.3500352,20.9866961 C21.9222225,25.2533065 19.0453351,28.387775 13.0000001,30.4941176 C6.95466486,28.387775 4.07777746,25.2533065 2.64996504,20.9866961 C1.23913751,16.7708157 1.28020194,11.4025085 1.2821662,4.95607328 C4.33656414,4.93463107 9.69036973,4.53968605 13.0000001,1.50588235 Z" id="Shape"></path>
        </g>
        <g id="noun_hacker_3202418" transform="translate(7.000000, 7.000000)" fill="#FFFFFF" fill-rule="nonzero">
            <g id="Group">
                <path d="M16.7597826,12.58125 L15.8913043,9.95625 C15.6326087,9.16875 15.0228261,8.55 14.2282609,8.2875 L11.9554348,7.5375 C12.3619565,6.9 12.5836957,6.15 12.5836957,5.325 C12.5836957,5.08125 12.5652174,4.85625 12.5282609,4.6125 C13.7847826,4.4625 14.5978261,4.2375 14.5978261,3.99375 C14.5978261,3.73125 13.7293478,3.50625 12.3619565,3.35625 L11.6413043,0.69375 C11.5119565,0.24375 11.0684783,-0.01875 10.625,0.1125 L8.74021739,0.69375 C8.5923913,0.73125 8.42608696,0.73125 8.27826087,0.69375 L6.39347826,0.13125 C5.95,-1.38777878e-17 5.48804348,0.2625 5.35869565,0.69375 L4.63804348,3.35625 C3.27065217,3.50625 2.40217391,3.75 2.40217391,3.99375 C2.40217391,4.2375 3.19673913,4.4625 4.47173913,4.6125 C4.43478261,4.8375 4.41630435,5.08125 4.41630435,5.325 C4.41630435,6.13125 4.65652174,6.88125 5.04456522,7.5375 L2.77173913,8.2875 C1.99565217,8.53125 1.38586957,9.15 1.12717391,9.95625 L0.240217391,12.58125 C-0.129347826,13.70625 0.535869565,14.90625 1.66304348,15.16875 L3.08586957,15.4875 L2.47608696,11.8125 C2.40217391,11.34375 2.53152174,10.875 2.82717391,10.5 C3.12282609,10.14375 3.56630435,9.91875 4.02826087,9.91875 L12.9532609,9.91875 C13.4152174,9.91875 13.8586957,10.125 14.1728261,10.5 C14.4684783,10.85625 14.5978261,11.325 14.523913,11.8125 L13.9141304,15.4875 L15.3369565,15.16875 C16.4826087,14.90625 17.1478261,13.70625 16.7597826,12.58125 Z M8.5,4.8375 C9.66413043,4.8375 10.7543478,4.8 11.6782609,4.70625 C11.7152174,4.9125 11.7336957,5.11875 11.7336957,5.325 C11.7336957,7.125 10.273913,8.5875 8.5,8.5875 C6.7076087,8.5875 5.26630435,7.125 5.26630435,5.325 C5.26630435,5.11875 5.28478261,4.9125 5.32173913,4.70625 C6.24565217,4.8 7.33586957,4.8375 8.5,4.8375 Z" id="Shape"></path>
                <path d="M12.9532609,10.9875 L4.04673913,10.9875 C3.69565217,10.9875 3.43695652,11.30625 3.4923913,11.6625 L4.43478261,17.41875 C4.47173913,17.7 4.71195652,17.90625 4.98913043,17.90625 L12.0108696,17.90625 C12.2880435,17.90625 12.5282609,17.7 12.5652174,17.41875 L13.526087,11.64375 C13.5815217,11.30625 13.3043478,10.9875 12.9532609,10.9875 Z M8.5,15.15 C8.11195652,15.15 7.79782609,14.83125 7.79782609,14.4375 C7.79782609,14.04375 8.11195652,13.725 8.5,13.725 C8.88804348,13.725 9.20217391,14.04375 9.20217391,14.4375 C9.20217391,14.83125 8.88804348,15.15 8.5,15.15 Z" id="Shape"></path>
                <path d="M7.18804348,6.3375 C7.66847826,6.375 8.09347826,6.0375 8.20434783,5.5875 C8.22282609,5.5125 8.1673913,5.4375 8.09347826,5.4375 L6.44891304,5.325 C6.375,5.325 6.30108696,5.38125 6.31956522,5.45625 C6.33804348,5.90625 6.7076087,6.3 7.18804348,6.3375 Z" id="Path"></path>
                <path d="M9.81195652,6.3375 C10.2923913,6.3 10.6619565,5.90625 10.698913,5.4375 C10.698913,5.3625 10.6434783,5.2875 10.5695652,5.30625 L8.925,5.41875 C8.85108696,5.41875 8.79565217,5.49375 8.81413043,5.56875 C8.90652174,6.0375 9.33152174,6.375 9.81195652,6.3375 Z" id="Path"></path>
            </g>
        </g>
    </g>
</svg>